<?xml version="1.0" encoding="UTF-8"?>
<svg width="53px" height="53px" viewBox="0 0 53 53" version="1.1" xmlns="http://www.w3.org/2000/svg" xmlns:xlink="http://www.w3.org/1999/xlink">
    <title>Combined Shape</title>
    <g id="Page-1" stroke="none" stroke-width="1" fill="none" fill-rule="evenodd">
        <g id="Inside-Copy-6" transform="translate(-1314, -7131)" fill="#1A466A">
            <g id="Instagram-Copy-3" transform="translate(1314, 7131)" fill-rule="nonzero">
                <path d="M26.5,0 C41.1355466,0 53,11.8644534 53,26.5 C53,41.1355466 41.1355466,53 26.5,53 C11.8644534,53 0,41.1355466 0,26.5 C0,11.8644534 11.8644534,0 26.5,0 Z M29.6251953,11.59375 C26.1623525,11.59375 23.7916124,13.9262357 23.7916124,18.2099602 L23.7916124,21.9012837 L19.875,21.9012837 L19.875,26.9065764 L23.7914892,26.9065764 L23.7914892,39.75 L28.4753087,39.75 L28.4753087,26.9064404 L32.3818182,26.9064404 L32.9666796,21.9011478 L28.4753087,21.9011478 L28.4753087,18.705418 C28.4753087,17.2562992 28.84,16.2686469 30.7232119,16.2686469 L33.125,16.2674232 L33.125,11.7907638 C32.7094244,11.7299873 31.2838016,11.59375 29.6251953,11.59375 Z" id="Combined-Shape"></path>
            </g>
        </g>
    </g>
</svg>