<?xml version="1.0" encoding="UTF-8"?>
<svg width="53px" height="53px" viewBox="0 0 53 53" version="1.1" xmlns="http://www.w3.org/2000/svg" xmlns:xlink="http://www.w3.org/1999/xlink">
    <title>Combined Shape</title>
    <g id="Page-1" stroke="none" stroke-width="1" fill="none" fill-rule="evenodd">
        <g id="Inside-Copy-6" transform="translate(-1382, -7131)" fill="#1A466A">
            <g id="Group-3-Copy" transform="translate(1314, 7131)">
                <g id="Instagram-Copy-2" transform="translate(68, 0)" fill-rule="nonzero">
                    <path d="M26.5,0 C41.1355466,0 53,11.8644534 53,26.5 C53,41.1355466 41.1355466,53 26.5,53 C11.8644534,53 0,41.1355466 0,26.5 C0,11.8644534 11.8644534,0 26.5,0 Z M27.1589724,12.3668594 L25.8394437,12.3668594 C25.7349697,12.366925 25.6333341,12.3670079 25.5344151,12.3671091 L24.9725236,12.3679444 C23.3787899,12.3711573 22.5861835,12.3809432 21.8834856,12.4029883 L21.6516073,12.4107986 C21.3442745,12.4218384 21.0390917,12.4354246 20.6736199,12.4520565 C19.1689931,12.5209572 18.1419602,12.7591652 17.2433064,13.1086744 C16.3137356,13.4696671 15.5252051,13.9525609 14.7396191,14.7384414 C13.9534443,15.5240274 13.4705504,16.3125577 13.1083799,17.2418341 C12.7579874,18.1407824 12.5194849,19.1681098 12.451762,20.6721476 C12.3945499,21.951299 12.3731626,22.492122 12.367995,24.9713276 L12.3671288,25.5332305 C12.3670234,25.632151 12.366937,25.7337878 12.3668685,25.8382628 L12.3668625,27.162013 C12.366929,27.2664819 12.3670131,27.3681112 12.3671157,27.4670228 L12.3679616,28.0288575 C12.373018,30.5076776 12.3940949,31.0472288 12.4520565,32.3263801 C12.5212516,33.8310069 12.7594596,34.8580398 13.1086744,35.7566936 C13.4699615,36.6862644 13.9528554,37.4747949 14.7387358,38.2603809 C15.5240274,39.0465557 16.3125577,39.5306274 17.2415397,39.8916201 C18.1407824,40.2411293 19.1681098,40.4793373 20.6724421,40.548238 C20.9922299,40.5627909 21.2658457,40.5750119 21.5351216,40.5852356 L21.7658423,40.5935174 C22.5764744,40.6208464 23.4556148,40.6310591 25.5327285,40.6331853 L27.4665071,40.6331853 C29.4448876,40.6311604 30.3361205,40.6218007 31.1165354,40.5973061 L31.3483117,40.5894959 C31.6555176,40.5784561 31.9606139,40.5648698 32.3260857,40.548238 C33.8307125,40.4793373 34.8589232,40.2411293 35.7581659,39.8916201 C36.6874423,39.5306274 37.4747949,39.0465557 38.2600863,38.2603809 C39.0462612,37.4747949 39.5291552,36.6862644 39.8913256,35.7569881 C40.2387737,34.8580398 40.4772762,33.8307125 40.5479435,32.3266746 C40.6054054,31.0475232 40.6268306,30.5077601 40.6320039,28.0288758 L40.632871,27.4670297 C40.6329764,27.3681166 40.633063,27.266486 40.6331314,27.1620161 L40.6331314,25.838266 C40.633063,25.7337919 40.6329764,25.6321564 40.632871,25.5332374 L40.6320039,24.9713458 C40.6284935,23.2890714 40.6174997,22.499411 40.5928407,21.765902 L40.5845922,21.5351585 C40.5744222,21.265859 40.562309,20.9922299 40.5479435,20.6724421 C40.4772762,19.1678153 40.2387737,18.1407824 39.8913256,17.2421285 C39.5291552,16.3125577 39.0462612,15.5240274 38.2600863,14.7384414 C37.4739116,13.9522665 36.6877367,13.4693726 35.7572825,13.1086744 C34.8562732,12.7591652 33.8286513,12.5209572 32.3240245,12.4520565 C31.9585527,12.4354246 31.6534737,12.4218384 31.3462815,12.4107986 L31.1145144,12.4029883 C30.4121646,12.3809432 29.6200071,12.3711573 28.0260587,12.3679444 L27.46407,12.3671091 C27.3651303,12.3670079 27.2634718,12.366925 27.1589724,12.3668594 Z M25.233434,14.9101042 L27.1517596,14.913796 C27.2543806,14.9138502 27.3541902,14.9139192 27.45131,14.914004 L28.0027243,14.9147118 C29.6528183,14.9176121 30.4196865,14.9270432 31.1372624,14.9507606 L31.3631994,14.9587343 C31.6271506,14.968612 31.8963262,14.9805397 32.212429,14.9949051 C33.5904433,15.0579169 34.33834,15.2881749 34.8365452,15.4816269 C35.4961076,15.7377962 35.9663402,16.0440217 36.4607176,16.5386935 C36.9553895,17.0333653 37.2616148,17.5044813 37.5183731,18.1640438 C37.7118251,18.66166 37.9423775,19.4095567 38.0050949,20.787571 C38.0174081,21.0584628 38.0279693,21.2948968 38.0370084,21.5231191 L38.0494544,21.8625743 C38.0759658,22.6555761 38.0852417,23.5087395 38.0871464,25.547356 L38.0871464,27.4464606 C38.0852417,29.4850771 38.0759658,30.3382404 38.0494544,31.1312422 L38.0370084,31.4706975 C38.0279693,31.6989198 38.0174081,31.9353538 38.0050949,32.2062455 C37.9420831,33.5842599 37.7118251,34.3321566 37.5183731,34.8297729 C37.2622038,35.4893353 36.9553895,35.9589791 36.4607176,36.4533565 C35.9660458,36.9480282 35.4964021,37.2542537 34.8365452,37.510423 C34.3389289,37.7047584 33.5904433,37.9344274 32.212429,37.9974392 C31.9415372,38.0097525 31.7051032,38.0203136 31.4768703,38.0293528 L31.1373898,38.0417988 C30.3820704,38.0670477 29.5720057,38.0766635 27.7347331,38.0791674 L25.2678342,38.0791674 C23.4304619,38.0766635 22.6204744,38.0670477 21.8652124,38.0417988 L21.639303,38.0337466 C21.3753878,38.0237854 21.1062614,38.0118047 20.790221,37.9974392 C19.4122067,37.9338386 18.66431,37.7035806 18.1658104,37.5101286 C17.5062479,37.2539593 17.035132,36.9477338 16.5404601,36.453062 C16.0457883,35.9583902 15.7395629,35.488452 15.4828047,34.8285951 C15.2893526,34.3309788 15.0588003,33.5830821 14.996083,32.2050678 C14.9386211,30.9409064 14.9201636,30.4271564 14.9158896,27.9950206 L14.9151818,27.443513 C14.915097,27.346377 14.915028,27.246551 14.9149737,27.1439133 L14.9149737,25.8428614 C14.915028,25.7402319 14.915097,25.6404158 14.9151818,25.5432917 L14.9158896,24.9918751 C14.9187898,23.3418459 14.9282209,22.5756994 14.9519384,21.8586587 L14.959912,21.6328835 C14.9697898,21.3691117 14.9817175,21.100078 14.996083,20.7840377 C15.0590948,19.4060233 15.2893526,18.6581266 15.4828047,18.1599215 C15.738974,17.500359 16.0457883,17.029243 16.5404601,16.5345712 C17.035132,16.0398993 17.5062479,15.733674 18.1658104,15.4769158 C18.6640156,15.2825804 19.4122067,15.0529113 20.790221,14.9896051 C22.0940347,14.9307156 22.5993066,14.9130488 25.233434,14.9101042 Z M26.5010306,19.2420161 C22.4930111,19.2420161 19.2431939,22.4918332 19.2431939,26.5001473 C19.2431939,30.5084612 22.4930111,33.7568061 26.501325,33.7568061 C30.509639,33.7568061 33.7582784,30.5084612 33.7582784,26.5001473 C33.7582784,22.4918332 30.5093445,19.2420161 26.5010306,19.2420161 Z M26.501325,21.7889871 C29.1030632,21.7889871 31.2124852,23.8981145 31.2124852,26.5001473 C31.2124852,29.1018855 29.1030632,31.2113074 26.501325,31.2113074 C23.8992924,31.2113074 21.7901648,29.1018855 21.7901648,26.5001473 C21.7901648,23.8981145 23.8992924,21.7889871 26.501325,21.7889871 Z M34.0456591,17.2597954 C33.1093161,17.2603843 32.3496414,18.0191756 32.3496414,18.9558131 C32.3496414,19.8921562 33.1093161,20.6518307 34.0456591,20.6518307 C34.9820023,20.6518307 35.7416768,19.8921562 35.7416768,18.9558131 C35.7416768,18.01947 34.9820023,17.2597954 34.0456591,17.2597954 Z" id="Combined-Shape"></path>
                </g>
            </g>
        </g>
    </g>
</svg>