<?xml version="1.0" encoding="UTF-8"?>
<svg width="163px" height="90px" viewBox="0 0 163 90" version="1.1" xmlns="http://www.w3.org/2000/svg" xmlns:xlink="http://www.w3.org/1999/xlink">
    <title>Group</title>
    <g id="Page-1" stroke="none" stroke-width="1" fill="none" fill-rule="evenodd">
        <g id="Inside-Copy-6" transform="translate(-518, -63)" fill="#FFFFFF">
            <g id="Group" transform="translate(518, 63)">
                <g id="Atlasgames-2-Copy-2" transform="translate(18, 0)" fill-rule="nonzero">
                    <path d="M31.6896263,38.5172798 C33.7518373,38.5172798 36.3156672,37.458194 35.5353712,35.451505 L23.0506342,3.95763657 C22.1031318,1.61649944 21.4900421,1.50501672 17.7000327,1.50501672 C13.9657587,1.50501672 13.241198,1.61649944 12.3494311,3.95763657 L0.143371306,35.451505 C-0.636924754,37.458194 1.92690516,38.5172798 3.98911617,38.5172798 C5.99559175,38.5172798 7.61191931,37.8483835 8.50368623,35.451505 L11.0117807,28.8740245 L24.6669618,28.8740245 L27.1750562,35.451505 C28.0668232,37.8483835 29.6831507,38.5172798 31.6896263,38.5172798 Z M22.5490153,22.7424749 L12.6281083,22.7424749 L17.5885618,9.47603122 L22.5490153,22.7424749 Z M51.0298215,38.851728 C57.27219,38.851728 58.3868986,36.9565217 58.3868986,34.057971 C58.3868986,32.2742475 57.9967506,31.9397993 57.27219,31.9397993 C56.0460104,31.9397993 55.0427727,32.4972129 52.3117364,32.4972129 C49.0831348,32.4972129 48.7557974,30.1867013 48.7449615,25.6184339 L48.7446687,16.9453735 L53.7608577,16.9453735 C56.0460104,16.9453735 57.0492482,16.4994426 57.27219,14.6042363 L57.4393963,13.0434783 C57.662338,11.148272 56.8263065,10.7580825 54.5968892,10.7580825 L48.911875,10.7580825 L48.911875,6.35451505 C48.911875,3.67892977 47.5184892,3.51170569 45.4005428,3.51170569 L44.7317176,3.51170569 C42.5023003,3.51170569 41.1646499,3.79041249 41.1646499,6.35451505 L41.1646499,10.7580825 L39.4368515,10.7580825 C37.2074341,10.7580825 36.4828735,11.2040134 36.4828735,13.154961 L36.4828735,14.7714604 C36.4828735,16.5551839 37.2074341,16.9453735 39.4368515,16.9453735 L41.1646499,16.9453735 L41.1646499,27.5362319 C41.1646499,35.8416945 43.5612735,38.851728 51.0298215,38.851728 Z M69.3110435,34.9498328 L69.3110435,3.17725753 C69.3110435,0.334448161 67.8061868,0 65.7997112,0 L64.9636797,0 C62.8457333,0 61.396612,0.2787068 61.396612,3.17725753 L61.396612,34.9498328 C61.396612,37.7825073 62.7806126,38.1130686 64.8203198,38.1266309 L65.7997112,38.1270903 C67.8061868,38.1270903 69.3110435,37.7926421 69.3110435,34.9498328 Z M82.3531347,38.5730212 C86.4218213,38.5730212 89.8774182,36.845039 91.8281583,34.0022297 L91.8281583,34.671126 C91.8281583,37.5139353 93.7788985,38.4057971 96.5099347,38.4057971 C98.0705268,38.4057971 99.4639126,37.7926421 99.4639126,36.3433668 L99.4639126,20.5128205 C99.4639126,13.93534 95.1722843,9.97770346 86.5332922,9.97770346 C79.3434214,9.97770346 74.3272324,13.3221851 74.3272324,16.7781494 C74.3272324,19.1750279 77.2812104,21.5719064 79.2319505,19.3979933 C80.6810718,17.8372352 82.6318119,15.942029 86.0316733,15.942029 C89.7102119,15.942029 91.660952,17.8372352 91.660952,21.3489409 L90.7691851,21.3489409 C78.786067,21.516165 73.1567883,24.4147157 73.1567883,30.657748 C73.1567883,35.3400223 76.6123852,38.5730212 82.3531347,38.5730212 Z M84.9727001,33.4448161 C82.3531347,33.4448161 80.7368072,32.1627648 80.7368072,30.1003344 C80.7368072,27.1460424 83.9694623,25.9197324 90.2118308,25.7525084 L91.660952,25.696767 L91.660952,27.2575251 C91.660952,30.8249721 88.9299158,33.4448161 84.9727001,33.4448161 Z M114.62395,38.7402453 C122.148234,38.7402453 126.718539,35.3957637 126.718539,29.877369 C126.718539,23.690078 120.476171,22.4080268 116.574691,21.5719064 C112.896152,20.735786 110.778205,20.4013378 110.778205,18.4503902 C110.778205,16.722408 112.450268,15.942029 115.404246,15.942029 C117.856605,15.942029 120.922054,17.2798216 123.151472,18.7848384 C124.210445,19.509476 125.938243,17.6700111 125.938243,16.0535117 C125.938243,12.9319955 122.31544,10.2006689 114.902628,10.2006689 C107.935698,10.2006689 103.476864,13.7681159 103.476864,19.0635452 C103.476864,25.3065775 109.38482,26.5328874 113.119094,27.3690078 C116.797632,28.1493868 119.02705,28.483835 119.02705,30.6020067 C119.02705,32.3299889 117.243516,33.2218506 114.178067,33.2218506 C110.72247,33.2218506 107.824228,31.6610925 105.483339,29.877369 C104.647308,29.264214 102.752303,31.1036789 102.752303,32.8316611 C102.752303,35.9531773 106.598048,38.7402453 114.62395,38.7402453 Z" id="Atlasgames"></path>
                </g>
                <g id="Atlasgames-2-Copy-3" transform="translate(0, 45)" fill-rule="nonzero">
                    <path d="M15.0224258,45 C25.3892163,45 28.4546651,41.1538462 28.4546651,36.1371237 C28.4546651,32.9041249 27.7858399,29.1694537 20.5959691,28.3890747 C14.9109549,27.7759197 11.0094746,27.8874025 14.1863943,25.0445931 L14.5765423,25.0445931 C22.2122966,25.0445931 27.1170147,21.0869565 27.1170147,15.2341137 C27.1170147,12.8929766 26.2252478,10.7748049 24.6646557,9.15830546 C24.7203911,9.15830546 27.8973108,6.09253066 29.0120194,4.97770346 C30.4054053,3.63991081 28.8448131,1.52173913 26.2809832,0.96432553 C24.5531848,0.574136009 22.9925927,1.35451505 22.3237675,2.63656633 L20.4287628,6.20401338 C18.6452289,5.42363434 16.6387534,5.03344482 14.4650715,5.03344482 C7.27520064,5.03344482 2.03606995,9.49275362 2.03606995,15.3455964 C2.03606995,19.6934225 4.87857703,23.0379041 9.56035338,24.3756968 C7.77681953,25.7692308 6.82931717,27.3857302 6.82931717,28.8907469 C6.82931717,32.3467113 9.44888252,33.6287625 15.3568384,34.1861761 C20.5959691,34.632107 21.487736,34.6878484 21.487736,36.2486065 C21.487736,38.5340022 19.3697896,39.1471572 14.9666904,39.1471572 C9.61608882,39.1471572 9.00299906,37.9208473 8.27843843,36.3600892 C7.27520064,34.1861761 6.21622741,33.9074693 4.1540164,34.2976589 C2.37048255,34.632107 0.47547783,34.632107 0.47547783,37.3076923 C0.47547783,42.212932 4.04254553,45 15.0224258,45 Z M14.5208069,20.4180602 C11.5110935,20.4180602 9.33741165,18.3556299 9.33741165,15.2341137 C9.33741165,12.1683389 11.4553581,10.1616499 14.4650715,10.1616499 C17.6419911,10.1616499 19.7599376,12.2240803 19.7599376,15.2341137 C19.7599376,18.3556299 17.6419911,20.4180602 14.5208069,20.4180602 Z M39.2116037,33.5730212 C43.2802903,33.5730212 46.7358871,31.845039 48.6866272,29.0022297 L48.6866272,29.671126 C48.6866272,32.5139353 50.6373674,33.4057971 53.3684036,33.4057971 C54.9289957,33.4057971 56.3223815,32.7926421 56.3223815,31.3433668 L56.3223815,15.5128205 C56.3223815,8.93534002 52.0307532,4.97770346 43.3917611,4.97770346 C36.2018903,4.97770346 31.1857013,8.32218506 31.1857013,11.7781494 C31.1857013,14.1750279 34.1396793,16.5719064 36.0904194,14.3979933 C37.5395407,12.8372352 39.4902808,10.942029 42.8901422,10.942029 C46.5686808,10.942029 48.5194209,12.8372352 48.5194209,16.3489409 L47.627654,16.3489409 C35.644536,16.516165 30.0152572,19.4147157 30.0152572,25.657748 C30.0152572,30.3400223 33.4708541,33.5730212 39.2116037,33.5730212 Z M41.831169,28.4448161 C39.2116037,28.4448161 37.5952761,27.1627648 37.5952761,25.1003344 C37.5952761,22.1460424 40.8279312,20.9197324 47.0702997,20.7525084 L48.5194209,20.696767 L48.5194209,22.2575251 C48.5194209,25.8249721 45.7883847,28.4448161 41.831169,28.4448161 Z M68.6399122,30.1727982 L68.6399122,16.6276477 C68.6399122,14.3979933 70.7578586,11.6109253 73.9347783,11.6109253 C77.0559626,11.6109253 78.783761,13.5061315 78.783761,17.296544 L78.783761,30.1727982 C78.783761,33.0054728 80.2209924,33.1763247 82.2631192,33.1828317 L83.2425956,33.1828317 C85.2490712,33.1828317 86.6981924,33.0156076 86.6981924,30.1727982 L86.6981924,16.6276477 C86.6981924,14.3979933 88.8161389,11.6109253 91.9930586,11.6109253 C95.1142428,11.6109253 96.8977766,13.5061315 96.8977766,17.12932 L96.8977766,30.1727982 C96.8977766,33.0054728 98.2817773,33.1763247 100.373505,33.1828317 L101.300876,33.1828317 C103.363087,33.1828317 104.812208,33.0156076 104.812208,30.1727982 L104.812208,15.8472687 C104.812208,9.43701226 101.913966,4.97770346 94.9470365,4.97770346 C90.376731,4.97770346 87.5342239,7.4303233 85.6949546,10.6075808 C84.4130397,7.09587514 81.4590618,4.97770346 76.9444917,4.97770346 C73.0430114,4.97770346 70.3119752,6.92865106 68.4727059,9.71571906 C67.9153516,6.20401338 65.7416697,5.31215162 63.7351941,5.31215162 C62.1188666,5.31215162 60.7254807,5.7580825 60.7254807,6.76142698 L60.7254807,30.1727982 C60.7254807,33.0054728 62.1094814,33.1763247 64.2012096,33.1828317 L65.1843154,33.1828317 C67.1907909,33.1828317 68.6399122,33.0156076 68.6399122,30.1727982 Z M123.149166,33.6845039 C130.78492,33.6845039 135.020813,30.3957637 135.020813,27.4972129 C135.020813,24.09699 132.345512,23.8740245 131.286539,24.7658863 C129.55874,26.2151616 127.106381,27.8316611 123.427843,27.8316611 C119.19195,27.8316611 116.237972,25.490524 115.680618,21.4214047 L134.407723,21.4214047 C135.856844,21.4214047 136.246992,21.1984392 136.302728,19.8049052 L136.302728,18.2998885 C136.302728,10.6633222 130.729184,4.97770346 122.647547,4.97770346 C114.398703,4.97770346 108.100599,11.1649944 108.100599,19.5261984 C108.100599,28.1661093 114.287232,33.6845039 123.149166,33.6845039 Z M128.945651,16.7948718 L115.680618,16.7948718 C116.182236,13.115942 118.857537,10.4960981 122.536076,10.4960981 C126.381821,10.4960981 128.778444,13.0044593 128.945651,16.7948718 Z M150.905411,33.7402453 C158.429695,33.7402453 163,30.3957637 163,24.877369 C163,18.690078 156.757632,17.4080268 152.856151,16.5719064 C149.177613,15.735786 147.059666,15.4013378 147.059666,13.4503902 C147.059666,11.722408 148.731729,10.942029 151.685707,10.942029 C154.138066,10.942029 157.203515,12.2798216 159.432932,13.7848384 C160.491906,14.509476 162.219704,12.6700111 162.219704,11.0535117 C162.219704,7.93199554 158.596901,5.2006689 151.184088,5.2006689 C144.217159,5.2006689 139.758325,8.76811594 139.758325,14.0635452 C139.758325,20.3065775 145.66628,21.5328874 149.400554,22.3690078 C153.079093,23.1493868 155.30851,23.483835 155.30851,25.6020067 C155.30851,27.3299889 153.524976,28.2218506 150.459528,28.2218506 C147.003931,28.2218506 144.105688,26.6610925 141.7648,24.877369 C140.928769,24.264214 139.033764,26.1036789 139.033764,27.8316611 C139.033764,30.9531773 142.879509,33.7402453 150.905411,33.7402453 Z" id="Atlasgames"></path>
                </g>
            </g>
        </g>
    </g>
</svg>